inDegrees=yes
name=ik_S49_A13_T01
DataType=double
version=3
OpenSimVersion=4.3-2021-08-27-4bc7ad9
endheader
time	pelvis_tilt	pelvis_list	pelvis_rotation	pelvis_tx	pelvis_ty	pelvis_tz	hip_flexion_r	hip_adduction_r	hip_rotation_r	knee_angle_r	knee_angle_r_beta	ankle_angle_r	subtalar_angle_r	mtp_angle_r	hip_flexion_l	hip_adduction_l	hip_rotation_l	knee_angle_l	knee_angle_l_beta	ankle_angle_l	subtalar_angle_l	mtp_angle_l	lumbar_extension	lumbar_bending	lumbar_rotation	arm_flex_r	arm_add_r	arm_rot_r	elbow_flex_r	pro_sup_r	wrist_flex_r	wrist_dev_r	arm_flex_l	arm_add_l	arm_rot_l	elbow_flex_l	pro_sup_l	wrist_flex_l	wrist_dev_l
7.779999999999922	0.9320817485645652	2.738331672311506	17.29960535792558	0	0.9399999999999999	0	20.65771471759917	-7.780567454825444	-6.511668559816564	24.54052108894259	0.4283128931571525	0	0	0	20.65771471759917	-7.780567454825444	-6.511668559816564	24.54052108894259	0.4283128931571525	0	0	0	1.978657815373785	3.826341467177715	10.17613517848623	69.71039186056164	1.573061502956746	16.39613657938387	33.33828861371025	160.5572361729901	0	0	89.01788539436585	-8.066082639487576	34.52288213561783	13.9943507498382	93.94756291135384	0	0
7.799999999999922	0.8893566599477672	2.77614007940479	17.18648729773176	0	0.9399999999999999	0	20.66894630823655	-7.783775792461697	-6.514911178065794	24.55130700709372	0.4285011429417402	0	0	0	20.66894630823655	-7.783775792461697	-6.514911178065794	24.55130700709372	0.4285011429417402	0	0	0	1.950343025239879	3.873637620196227	10.14151933761231	69.08057403027105	1.521017951869304	16.5653878023495	33.76310555992982	160.517650143611	0	0	89.06923992832056	-8.205497565371255	34.74933857064222	14.10750278726951	94.30729813120324	0	0
7.819999999999921	0.8754456176140724	2.78853286106999	17.14716360471824	0	0.9399999999999999	0	20.67730751310135	-7.786155381513679	-6.517320094852548	24.55935775061294	0.4286416549233842	0	0	0	20.67730751310135	-7.786155381513679	-6.517320094852548	24.55935775061294	0.4286416549233842	0	0	0	1.940872791510553	3.889273693288288	10.13396521417303	68.42019354131658	1.434035791064432	16.59638254085024	33.89625683600973	160.3212767101855	0	0	89.10822271097649	-8.283764169731798	34.70590277771381	14.1499552151746	94.41099087131676	0	0
7.839999999999921	0.8389959367471767	2.83100526170492	17.05294268642004	0	0.9399999999999999	0	20.68561505538346	-7.788519453018097	-6.519713752628062	24.56735195739595	0.4287811801528331	0	0	0	20.68561505538346	-7.788519453018097	-6.519713752628062	24.56735195739595	0.4287811801528331	0	0	0	1.918664039330307	3.940049102148283	10.12478910858936	67.80348987698564	1.333558303379389	16.73443985021551	33.96317906583668	160.3173911707944	0	0	89.10197930229229	-8.361480366562924	34.85578790081636	14.07952015852231	93.61809214518924	0	0
7.85999999999992	0.7951187688260771	2.836461400284553	16.97736487267288	0	0.9399999999999999	0	20.6938493301616	-7.790862441581343	-6.522086389585755	24.57527255717173	0.428919420697653	0	0	0	20.6938493301616	-7.790862441581343	-6.522086389585755	24.57527255717173	0.428919420697653	0	0	0	1.878431297711441	3.957668787209822	10.11177886269586	67.20470486410369	1.223158503161857	17.02205864154729	33.99048296268608	160.3991169446484	0	0	89.18451307100892	-8.415526546609888	34.82415648428795	14.06176084189032	93.57983876990981	0	0
7.87999999999992	0.7718311640794426	2.852928712146066	16.91650892415387	0	0.9399999999999999	0	20.70138618090679	-7.793004102201144	-6.524256576966924	24.58252691375221	0.4290460331050963	0	0	0	20.70138618090679	-7.793004102201144	-6.524256576966924	24.58252691375221	0.4290460331050963	0	0	0	1.861950926538444	3.97899641026829	10.08097114187456	66.4866273879007	1.093540946997941	17.54574633591441	33.92296338492927	160.2826039812558	0	0	89.32374666447707	-8.48003346194481	34.31262835249532	13.81276002457845	93.37619344608986	0	0
7.89999999999992	0.7359513635947357	2.876725740123324	16.82109298815095	0	0.9399999999999999	0	20.71040681729436	-7.795565578742155	-6.526853193808452	24.59121031988718	0.4291975871324393	0	0	0	20.71040681729436	-7.795565578742155	-6.526853193808452	24.59121031988718	0.4291975871324393	0	0	0	1.835502142463578	4.010206137925141	10.04116256945251	66.48038434834169	1.232148593884593	17.70351233723937	33.5448837267171	160.3178259033207	0	0	89.4861636328269	-8.585295670982301	33.69458567764297	13.51898765729177	93.14684984628126	0	0
